<svg width="205" height="27" viewBox="0 0 205 27" fill="none" xmlns="http://www.w3.org/2000/svg">
<path d="M19.6 11.23V10.15H22.9C24.22 10.15 25.33 10.21 25.66 10.24V7.72C25.24 7.78 24.22 7.87 22.9 7.87H19.6V4.12C19.6 2.95 19.72 1.96 19.75 1.66H17.05C17.11 1.96 17.2 2.95 17.2 4.12V7.87H8.65V4.03C8.65 2.98 8.77 2.14 8.8 1.84H6.13C6.22 2.53 6.25 3.4 6.25 4.03V7.87H3.01C1.75 7.87 0.28 7.72 0.0100001 7.66V10.27C0.37 10.24 1.72 10.15 3.01 10.15H6.25V15.01C6.25 16.15 6.16 17.44 6.13 17.74H8.77C8.74 17.44 8.65 16.12 8.65 15.01V10.15H17.2V11.41C17.2 19.81 14.47 22.39 9.01 24.49L11.02 26.38C17.89 23.32 19.6 19.21 19.6 11.23ZM30.58 14.17L31.78 16.51C35.95 15.22 40.06 13.42 43.21 11.62V22.72C43.21 23.86 43.12 25.36 43.03 25.93H45.97C45.85 25.33 45.79 23.86 45.79 22.72V10.06C48.85 8.02 51.61 5.74 53.89 3.37L51.88 1.51C49.81 4 46.81 6.61 43.69 8.56C40.36 10.66 35.77 12.76 30.58 14.17ZM80.3641 1.63L78.7741 2.29C79.5841 3.43 80.6041 5.23 81.2041 6.46L82.8241 5.74C82.2241 4.51 81.1141 2.68 80.3641 1.63ZM83.6641 0.429998L82.0741 1.09C82.9441 2.23 83.9041 3.91 84.5641 5.23L86.1841 4.51C85.6141 3.4 84.4741 1.51 83.6641 0.429998ZM63.9541 15.97C62.9041 18.49 61.2241 21.64 59.3341 24.13L61.8841 25.21C63.5641 22.81 65.1841 19.72 66.2941 16.96C67.5541 13.9 68.6041 9.46 69.0241 7.57C69.1441 6.94 69.3841 6.07 69.5641 5.41L66.8941 4.84C66.5041 8.32 65.2441 12.88 63.9541 15.97ZM78.7141 14.83C79.9741 18.04 81.3541 22.09 82.1041 25.15L84.7741 24.28C83.9941 21.58 82.4041 16.99 81.1741 14.02C79.9141 10.84 77.9941 6.7 76.7941 4.54L74.3641 5.35C75.6841 7.57 77.5141 11.74 78.7141 14.83ZM90.4741 12.01V14.95C91.4041 14.86 92.9941 14.8 94.6441 14.8H111.114C112.464 14.8 113.724 14.92 114.324 14.95V12.01C113.664 12.07 112.584 12.16 111.084 12.16H94.6441C92.9641 12.16 91.3741 12.07 90.4741 12.01ZM140.611 4.09C140.611 2.98 141.481 2.08 142.591 2.08C143.671 2.08 144.571 2.98 144.571 4.09C144.571 5.17 143.671 6.07 142.591 6.07C141.481 6.07 140.611 5.17 140.611 4.09ZM139.231 4.09C139.231 5.95 140.731 7.45 142.591 7.45C144.421 7.45 145.951 5.95 145.951 4.09C145.951 2.23 144.421 0.699998 142.591 0.699998C140.731 0.699998 139.231 2.23 139.231 4.09ZM123.661 15.97C122.611 18.49 120.931 21.64 119.041 24.13L121.591 25.21C123.271 22.81 124.891 19.72 126.001 16.96C127.261 13.9 128.311 9.46 128.731 7.57C128.851 6.94 129.091 6.07 129.271 5.41L126.601 4.84C126.211 8.32 124.951 12.88 123.661 15.97ZM138.421 14.83C139.681 18.04 141.061 22.09 141.811 25.15L144.481 24.28C143.701 21.58 142.111 16.99 140.881 14.02C139.621 10.84 137.701 6.7 136.501 4.54L134.071 5.35C135.391 7.57 137.221 11.74 138.421 14.83ZM155.425 3.01L153.715 4.84C155.935 6.34 159.685 9.55 161.185 11.11L163.075 9.22C161.395 7.54 157.555 4.42 155.425 3.01ZM152.845 23.11L154.435 25.57C159.445 24.64 163.225 22.81 166.225 20.92C170.755 18.07 174.265 13.99 176.305 10.24L174.865 7.69C173.125 11.38 169.465 15.82 164.845 18.73C161.995 20.5 158.095 22.33 152.845 23.11ZM194.725 1.69L191.935 0.789999C191.755 1.57 191.305 2.65 191.005 3.16C189.715 5.86 186.745 10.21 181.585 13.3L183.655 14.86C186.925 12.67 189.445 10 191.275 7.48H201.415C200.785 10.21 198.955 14.08 196.615 16.84C193.885 20.02 190.135 22.75 184.645 24.37L186.805 26.32C192.445 24.25 196.015 21.49 198.745 18.16C201.415 14.92 203.275 10.87 204.085 7.84C204.235 7.36 204.535 6.67 204.775 6.25L202.765 5.02C202.285 5.23 201.625 5.32 200.815 5.32H192.685C192.955 4.9 193.195 4.48 193.405 4.06C193.675 3.49 194.215 2.47 194.725 1.69Z" fill="#F50058"/>
</svg>
